<?xml version="1.0" encoding="utf-8"?><!-- Uploaded to: SVG Repo, www.svgrepo.com, Generator: SVG Repo Mixer Tools -->
<svg width="800px" height="800px" viewBox="0 0 24 24" fill="none" xmlns="http://www.w3.org/2000/svg">
<path fill-rule="evenodd" clip-rule="evenodd" d="M12 6C9.09267 6 6.75 8.32878 6.75 11.1841V13.0101C7.08842 12.8438 7.46887 12.75 7.875 12.75C9.35881 12.75 10.5 14.0021 10.5 15.4688L10.5 16.7812C10.5 18.2479 9.35881 19.5 7.875 19.5C6.39119 19.5 5.25 18.2479 5.25 16.7812V16.5V15.4688V11.1841C5.25 7.48477 8.27991 4.5 12 4.5C15.7201 4.5 18.75 7.48477 18.75 11.1841L18.75 15.4673C18.75 15.4678 18.75 15.4683 18.75 15.4688V16.5V16.7812C18.75 18.2479 17.6088 19.5 16.125 19.5C14.6412 19.5 13.5 18.2479 13.5 16.7812V15.4688C13.5 14.0021 14.6412 12.75 16.125 12.75C16.5311 12.75 16.9116 12.8438 17.25 13.0101L17.25 11.1841C17.25 8.32878 14.9073 6 12 6ZM17.25 15.4677C17.2495 14.7603 16.712 14.25 16.125 14.25C15.5377 14.25 15 14.7607 15 15.4688V16.7812C15 17.4893 15.5377 18 16.125 18C16.7123 18 17.25 17.4893 17.25 16.7812V16.5V15.4688C17.25 15.4684 17.25 15.4681 17.25 15.4677ZM6.75 16.5V15.4688C6.75 14.7607 7.28774 14.25 7.875 14.25C8.46226 14.25 9 14.7607 9 15.4688L9 16.7812C9 17.4893 8.46226 18 7.875 18C7.28774 18 6.75 17.4893 6.75 16.7812V16.5Z" fill="#080341"/>
</svg>